<mxfile host="Electron" agent="Mozilla/5.0 (Windows NT 10.0; Win64; x64) AppleWebKit/537.36 (KHTML, like Gecko) draw.io/26.2.2 Chrome/134.0.6998.178 Electron/35.1.2 Safari/537.36" version="26.2.2">
  <diagram name="Page-1" id="xRfz-6UvRlw8iDULHB4P">
    <mxGraphModel dx="2380" dy="1415" grid="1" gridSize="10" guides="1" tooltips="1" connect="1" arrows="1" fold="1" page="1" pageScale="1" pageWidth="850" pageHeight="1100" math="0" shadow="0">
      <root>
        <mxCell id="0" />
        <mxCell id="1" parent="0" />
        <mxCell id="XdePbFOdz1kA0PpPe4pF-14" style="edgeStyle=orthogonalEdgeStyle;rounded=0;orthogonalLoop=1;jettySize=auto;html=1;entryX=0;entryY=0.25;entryDx=0;entryDy=0;" edge="1" parent="1" source="XdePbFOdz1kA0PpPe4pF-1" target="XdePbFOdz1kA0PpPe4pF-7">
          <mxGeometry relative="1" as="geometry" />
        </mxCell>
        <mxCell id="XdePbFOdz1kA0PpPe4pF-1" value="1" style="triangle;whiteSpace=wrap;html=1;" vertex="1" parent="1">
          <mxGeometry x="120" y="80" width="30" height="40" as="geometry" />
        </mxCell>
        <mxCell id="XdePbFOdz1kA0PpPe4pF-11" style="edgeStyle=orthogonalEdgeStyle;rounded=0;orthogonalLoop=1;jettySize=auto;html=1;entryX=0;entryY=0.75;entryDx=0;entryDy=0;" edge="1" parent="1" source="XdePbFOdz1kA0PpPe4pF-2" target="XdePbFOdz1kA0PpPe4pF-7">
          <mxGeometry relative="1" as="geometry" />
        </mxCell>
        <mxCell id="XdePbFOdz1kA0PpPe4pF-2" value="1" style="triangle;whiteSpace=wrap;html=1;" vertex="1" parent="1">
          <mxGeometry x="120" y="160" width="30" height="40" as="geometry" />
        </mxCell>
        <mxCell id="XdePbFOdz1kA0PpPe4pF-12" style="edgeStyle=orthogonalEdgeStyle;rounded=0;orthogonalLoop=1;jettySize=auto;html=1;entryX=0;entryY=0.75;entryDx=0;entryDy=0;" edge="1" parent="1" source="XdePbFOdz1kA0PpPe4pF-3" target="XdePbFOdz1kA0PpPe4pF-8">
          <mxGeometry relative="1" as="geometry" />
        </mxCell>
        <mxCell id="XdePbFOdz1kA0PpPe4pF-3" value="1" style="triangle;whiteSpace=wrap;html=1;" vertex="1" parent="1">
          <mxGeometry x="120" y="240" width="30" height="40" as="geometry" />
        </mxCell>
        <mxCell id="XdePbFOdz1kA0PpPe4pF-16" style="edgeStyle=orthogonalEdgeStyle;rounded=0;orthogonalLoop=1;jettySize=auto;html=1;entryX=0;entryY=0.75;entryDx=0;entryDy=0;" edge="1" parent="1" source="XdePbFOdz1kA0PpPe4pF-4" target="XdePbFOdz1kA0PpPe4pF-15">
          <mxGeometry relative="1" as="geometry" />
        </mxCell>
        <mxCell id="XdePbFOdz1kA0PpPe4pF-4" value="1" style="triangle;whiteSpace=wrap;html=1;" vertex="1" parent="1">
          <mxGeometry x="120" y="320" width="30" height="40" as="geometry" />
        </mxCell>
        <mxCell id="XdePbFOdz1kA0PpPe4pF-19" style="edgeStyle=orthogonalEdgeStyle;rounded=0;orthogonalLoop=1;jettySize=auto;html=1;entryX=0;entryY=0.75;entryDx=0;entryDy=0;" edge="1" parent="1" source="XdePbFOdz1kA0PpPe4pF-5" target="XdePbFOdz1kA0PpPe4pF-18">
          <mxGeometry relative="1" as="geometry" />
        </mxCell>
        <mxCell id="XdePbFOdz1kA0PpPe4pF-5" value="1" style="triangle;whiteSpace=wrap;html=1;" vertex="1" parent="1">
          <mxGeometry x="120" y="400" width="30" height="40" as="geometry" />
        </mxCell>
        <mxCell id="XdePbFOdz1kA0PpPe4pF-23" style="edgeStyle=orthogonalEdgeStyle;rounded=0;orthogonalLoop=1;jettySize=auto;html=1;entryX=0;entryY=0.75;entryDx=0;entryDy=0;" edge="1" parent="1" source="XdePbFOdz1kA0PpPe4pF-6" target="XdePbFOdz1kA0PpPe4pF-22">
          <mxGeometry relative="1" as="geometry" />
        </mxCell>
        <mxCell id="XdePbFOdz1kA0PpPe4pF-6" value="1" style="triangle;whiteSpace=wrap;html=1;" vertex="1" parent="1">
          <mxGeometry x="120" y="480" width="30" height="40" as="geometry" />
        </mxCell>
        <mxCell id="XdePbFOdz1kA0PpPe4pF-13" style="edgeStyle=orthogonalEdgeStyle;rounded=0;orthogonalLoop=1;jettySize=auto;html=1;entryX=0;entryY=0.25;entryDx=0;entryDy=0;" edge="1" parent="1" source="XdePbFOdz1kA0PpPe4pF-7" target="XdePbFOdz1kA0PpPe4pF-8">
          <mxGeometry relative="1" as="geometry" />
        </mxCell>
        <mxCell id="XdePbFOdz1kA0PpPe4pF-7" value="2" style="triangle;whiteSpace=wrap;html=1;" vertex="1" parent="1">
          <mxGeometry x="200" y="120" width="30" height="40" as="geometry" />
        </mxCell>
        <mxCell id="XdePbFOdz1kA0PpPe4pF-17" style="edgeStyle=orthogonalEdgeStyle;rounded=0;orthogonalLoop=1;jettySize=auto;html=1;entryX=0;entryY=0.25;entryDx=0;entryDy=0;" edge="1" parent="1" source="XdePbFOdz1kA0PpPe4pF-8" target="XdePbFOdz1kA0PpPe4pF-15">
          <mxGeometry relative="1" as="geometry" />
        </mxCell>
        <mxCell id="XdePbFOdz1kA0PpPe4pF-8" value="3" style="triangle;whiteSpace=wrap;html=1;" vertex="1" parent="1">
          <mxGeometry x="280" y="200" width="30" height="40" as="geometry" />
        </mxCell>
        <mxCell id="XdePbFOdz1kA0PpPe4pF-20" style="edgeStyle=orthogonalEdgeStyle;rounded=0;orthogonalLoop=1;jettySize=auto;html=1;entryX=0;entryY=0.25;entryDx=0;entryDy=0;" edge="1" parent="1" source="XdePbFOdz1kA0PpPe4pF-15" target="XdePbFOdz1kA0PpPe4pF-18">
          <mxGeometry relative="1" as="geometry" />
        </mxCell>
        <mxCell id="XdePbFOdz1kA0PpPe4pF-15" value="4" style="triangle;whiteSpace=wrap;html=1;fontSize=15;" vertex="1" parent="1">
          <mxGeometry x="360" y="280" width="30" height="40" as="geometry" />
        </mxCell>
        <mxCell id="XdePbFOdz1kA0PpPe4pF-24" style="edgeStyle=orthogonalEdgeStyle;rounded=0;orthogonalLoop=1;jettySize=auto;html=1;entryX=0;entryY=0.25;entryDx=0;entryDy=0;" edge="1" parent="1" source="XdePbFOdz1kA0PpPe4pF-18" target="XdePbFOdz1kA0PpPe4pF-22">
          <mxGeometry relative="1" as="geometry" />
        </mxCell>
        <mxCell id="XdePbFOdz1kA0PpPe4pF-18" value="5" style="triangle;whiteSpace=wrap;html=1;" vertex="1" parent="1">
          <mxGeometry x="440" y="360" width="30" height="40" as="geometry" />
        </mxCell>
        <mxCell id="XdePbFOdz1kA0PpPe4pF-22" value="6" style="triangle;whiteSpace=wrap;html=1;" vertex="1" parent="1">
          <mxGeometry x="520" y="440" width="30" height="40" as="geometry" />
        </mxCell>
        <mxCell id="XdePbFOdz1kA0PpPe4pF-25" value="&lt;font style=&quot;font-size: 25px;&quot;&gt;Positive Integers&lt;/font&gt;" style="whiteSpace=wrap;html=1;" vertex="1" parent="1">
          <mxGeometry x="400" y="180" width="120" height="60" as="geometry" />
        </mxCell>
        <mxCell id="XdePbFOdz1kA0PpPe4pF-33" style="edgeStyle=orthogonalEdgeStyle;rounded=0;orthogonalLoop=1;jettySize=auto;html=1;entryX=1;entryY=0.5;entryDx=0;entryDy=0;" edge="1" parent="1" source="XdePbFOdz1kA0PpPe4pF-26" target="XdePbFOdz1kA0PpPe4pF-30">
          <mxGeometry relative="1" as="geometry" />
        </mxCell>
        <mxCell id="XdePbFOdz1kA0PpPe4pF-34" style="edgeStyle=orthogonalEdgeStyle;rounded=0;orthogonalLoop=1;jettySize=auto;html=1;entryX=1;entryY=0.5;entryDx=0;entryDy=0;" edge="1" parent="1" source="XdePbFOdz1kA0PpPe4pF-26" target="XdePbFOdz1kA0PpPe4pF-29">
          <mxGeometry relative="1" as="geometry" />
        </mxCell>
        <mxCell id="XdePbFOdz1kA0PpPe4pF-26" value="1" style="triangle;whiteSpace=wrap;html=1;" vertex="1" parent="1">
          <mxGeometry x="120" y="600" width="30" height="40" as="geometry" />
        </mxCell>
        <mxCell id="XdePbFOdz1kA0PpPe4pF-29" value="0" style="triangle;whiteSpace=wrap;html=1;direction=west;" vertex="1" parent="1">
          <mxGeometry x="210" y="640" width="30" height="40" as="geometry" />
        </mxCell>
        <mxCell id="XdePbFOdz1kA0PpPe4pF-30" value="1" style="triangle;whiteSpace=wrap;html=1;direction=west;" vertex="1" parent="1">
          <mxGeometry x="210" y="560" width="30" height="40" as="geometry" />
        </mxCell>
        <mxCell id="XdePbFOdz1kA0PpPe4pF-35" style="edgeStyle=orthogonalEdgeStyle;rounded=0;orthogonalLoop=1;jettySize=auto;html=1;entryX=0;entryY=0.75;entryDx=0;entryDy=0;" edge="1" parent="1" source="XdePbFOdz1kA0PpPe4pF-31" target="XdePbFOdz1kA0PpPe4pF-29">
          <mxGeometry relative="1" as="geometry" />
        </mxCell>
        <mxCell id="XdePbFOdz1kA0PpPe4pF-31" value="1" style="triangle;whiteSpace=wrap;html=1;direction=west;" vertex="1" parent="1">
          <mxGeometry x="290" y="600" width="30" height="40" as="geometry" />
        </mxCell>
        <mxCell id="XdePbFOdz1kA0PpPe4pF-36" style="edgeStyle=orthogonalEdgeStyle;rounded=0;orthogonalLoop=1;jettySize=auto;html=1;entryX=0;entryY=0.25;entryDx=0;entryDy=0;" edge="1" parent="1" source="XdePbFOdz1kA0PpPe4pF-32" target="XdePbFOdz1kA0PpPe4pF-29">
          <mxGeometry relative="1" as="geometry" />
        </mxCell>
        <mxCell id="XdePbFOdz1kA0PpPe4pF-32" value="- 1" style="triangle;whiteSpace=wrap;html=1;direction=west;" vertex="1" parent="1">
          <mxGeometry x="290" y="680" width="30" height="40" as="geometry" />
        </mxCell>
        <mxCell id="XdePbFOdz1kA0PpPe4pF-40" style="edgeStyle=orthogonalEdgeStyle;rounded=0;orthogonalLoop=1;jettySize=auto;html=1;entryX=0;entryY=0.75;entryDx=0;entryDy=0;" edge="1" parent="1" source="XdePbFOdz1kA0PpPe4pF-37" target="XdePbFOdz1kA0PpPe4pF-32">
          <mxGeometry relative="1" as="geometry" />
        </mxCell>
        <mxCell id="XdePbFOdz1kA0PpPe4pF-37" value="1" style="triangle;whiteSpace=wrap;html=1;direction=west;" vertex="1" parent="1">
          <mxGeometry x="370" y="640" width="30" height="40" as="geometry" />
        </mxCell>
        <mxCell id="XdePbFOdz1kA0PpPe4pF-39" style="edgeStyle=orthogonalEdgeStyle;rounded=0;orthogonalLoop=1;jettySize=auto;html=1;entryX=0;entryY=0.25;entryDx=0;entryDy=0;" edge="1" parent="1" source="XdePbFOdz1kA0PpPe4pF-38" target="XdePbFOdz1kA0PpPe4pF-32">
          <mxGeometry relative="1" as="geometry" />
        </mxCell>
        <mxCell id="XdePbFOdz1kA0PpPe4pF-38" value="- 2" style="triangle;whiteSpace=wrap;html=1;direction=west;" vertex="1" parent="1">
          <mxGeometry x="370" y="720" width="30" height="40" as="geometry" />
        </mxCell>
        <mxCell id="XdePbFOdz1kA0PpPe4pF-45" style="edgeStyle=orthogonalEdgeStyle;rounded=0;orthogonalLoop=1;jettySize=auto;html=1;entryX=0;entryY=0.75;entryDx=0;entryDy=0;" edge="1" parent="1" source="XdePbFOdz1kA0PpPe4pF-41" target="XdePbFOdz1kA0PpPe4pF-38">
          <mxGeometry relative="1" as="geometry" />
        </mxCell>
        <mxCell id="XdePbFOdz1kA0PpPe4pF-41" value="1" style="triangle;whiteSpace=wrap;html=1;direction=west;" vertex="1" parent="1">
          <mxGeometry x="450" y="680" width="30" height="40" as="geometry" />
        </mxCell>
        <mxCell id="XdePbFOdz1kA0PpPe4pF-46" style="edgeStyle=orthogonalEdgeStyle;rounded=0;orthogonalLoop=1;jettySize=auto;html=1;entryX=0;entryY=0.25;entryDx=0;entryDy=0;" edge="1" parent="1" source="XdePbFOdz1kA0PpPe4pF-42" target="XdePbFOdz1kA0PpPe4pF-38">
          <mxGeometry relative="1" as="geometry" />
        </mxCell>
        <mxCell id="XdePbFOdz1kA0PpPe4pF-42" value="- 3" style="triangle;whiteSpace=wrap;html=1;direction=west;" vertex="1" parent="1">
          <mxGeometry x="450" y="760" width="30" height="40" as="geometry" />
        </mxCell>
        <mxCell id="XdePbFOdz1kA0PpPe4pF-47" style="edgeStyle=orthogonalEdgeStyle;rounded=0;orthogonalLoop=1;jettySize=auto;html=1;entryX=0;entryY=0.75;entryDx=0;entryDy=0;" edge="1" parent="1" source="XdePbFOdz1kA0PpPe4pF-43" target="XdePbFOdz1kA0PpPe4pF-42">
          <mxGeometry relative="1" as="geometry" />
        </mxCell>
        <mxCell id="XdePbFOdz1kA0PpPe4pF-43" value="1" style="triangle;whiteSpace=wrap;html=1;direction=west;" vertex="1" parent="1">
          <mxGeometry x="530" y="720" width="30" height="40" as="geometry" />
        </mxCell>
        <mxCell id="XdePbFOdz1kA0PpPe4pF-48" style="edgeStyle=orthogonalEdgeStyle;rounded=0;orthogonalLoop=1;jettySize=auto;html=1;entryX=0;entryY=0.25;entryDx=0;entryDy=0;" edge="1" parent="1" source="XdePbFOdz1kA0PpPe4pF-44" target="XdePbFOdz1kA0PpPe4pF-42">
          <mxGeometry relative="1" as="geometry" />
        </mxCell>
        <mxCell id="XdePbFOdz1kA0PpPe4pF-44" value="- 4" style="triangle;whiteSpace=wrap;html=1;direction=west;" vertex="1" parent="1">
          <mxGeometry x="530" y="800" width="30" height="40" as="geometry" />
        </mxCell>
        <mxCell id="XdePbFOdz1kA0PpPe4pF-49" value="&lt;br&gt;&lt;span style=&quot;color: rgb(255, 255, 255); font-family: Helvetica; font-size: 25px; font-style: normal; font-variant-ligatures: normal; font-variant-caps: normal; font-weight: 400; letter-spacing: normal; orphans: 2; text-align: center; text-indent: 0px; text-transform: none; widows: 2; word-spacing: 0px; -webkit-text-stroke-width: 0px; white-space: normal; background-color: rgb(27, 29, 30); text-decoration-thickness: initial; text-decoration-style: initial; text-decoration-color: initial; display: inline !important; float: none;&quot;&gt;Negative Integers&lt;/span&gt;&lt;div&gt;&lt;br/&gt;&lt;/div&gt;" style="whiteSpace=wrap;html=1;" vertex="1" parent="1">
          <mxGeometry x="440" y="580" width="120" height="60" as="geometry" />
        </mxCell>
        <mxCell id="XdePbFOdz1kA0PpPe4pF-64" value="- 1" style="triangle;whiteSpace=wrap;html=1;direction=west;" vertex="1" parent="1">
          <mxGeometry x="130" y="880" width="30" height="40" as="geometry" />
        </mxCell>
        <mxCell id="XdePbFOdz1kA0PpPe4pF-66" style="edgeStyle=orthogonalEdgeStyle;rounded=0;orthogonalLoop=1;jettySize=auto;html=1;entryX=0;entryY=0.5;entryDx=0;entryDy=0;" edge="1" parent="1" source="XdePbFOdz1kA0PpPe4pF-65" target="XdePbFOdz1kA0PpPe4pF-64">
          <mxGeometry relative="1" as="geometry" />
        </mxCell>
        <mxCell id="XdePbFOdz1kA0PpPe4pF-65" value="&lt;font style=&quot;font-size: 22px;&quot;&gt;i&lt;/font&gt;" style="triangle;whiteSpace=wrap;html=1;direction=west;" vertex="1" parent="1">
          <mxGeometry x="220" y="860" width="60" height="80" as="geometry" />
        </mxCell>
        <mxCell id="XdePbFOdz1kA0PpPe4pF-68" style="edgeStyle=orthogonalEdgeStyle;rounded=0;orthogonalLoop=1;jettySize=auto;html=1;" edge="1" parent="1" source="XdePbFOdz1kA0PpPe4pF-67" target="XdePbFOdz1kA0PpPe4pF-65">
          <mxGeometry relative="1" as="geometry" />
        </mxCell>
        <mxCell id="XdePbFOdz1kA0PpPe4pF-67" value="&lt;font style=&quot;font-size: 22px;&quot;&gt;i&lt;/font&gt;" style="triangle;whiteSpace=wrap;html=1;direction=west;" vertex="1" parent="1">
          <mxGeometry x="340" y="860" width="60" height="80" as="geometry" />
        </mxCell>
        <mxCell id="XdePbFOdz1kA0PpPe4pF-69" value="&lt;span style=&quot;font-size: 25px; float: none; display: inline !important; color: rgb(255, 255, 255); background-color: rgb(27, 29, 30);&quot;&gt;Complex Numbers&lt;/span&gt;&lt;div&gt;&lt;span style=&quot;font-size: 25px; float: none; display: inline !important; color: rgb(255, 255, 255); background-color: rgb(27, 29, 30);&quot;&gt;Imaginary Unit (i)&lt;/span&gt;&lt;/div&gt;" style="whiteSpace=wrap;html=1;" vertex="1" parent="1">
          <mxGeometry x="120" y="960" width="220" height="80" as="geometry" />
        </mxCell>
        <mxCell id="XdePbFOdz1kA0PpPe4pF-72" value="" style="edgeStyle=orthogonalEdgeStyle;rounded=0;orthogonalLoop=1;jettySize=auto;html=1;" edge="1" parent="1" source="XdePbFOdz1kA0PpPe4pF-70" target="XdePbFOdz1kA0PpPe4pF-71">
          <mxGeometry relative="1" as="geometry" />
        </mxCell>
        <mxCell id="XdePbFOdz1kA0PpPe4pF-70" value="&lt;font style=&quot;font-size: 27px;&quot;&gt;Integers (Z)&lt;/font&gt;" style="triangle;whiteSpace=wrap;html=1;" vertex="1" parent="1">
          <mxGeometry x="920" y="80" width="120" height="160" as="geometry" />
        </mxCell>
        <mxCell id="XdePbFOdz1kA0PpPe4pF-71" value="&lt;font style=&quot;font-size: 27px;&quot;&gt;Integers (Z)&lt;/font&gt;" style="triangle;whiteSpace=wrap;html=1;" vertex="1" parent="1">
          <mxGeometry x="1120" y="80" width="120" height="160" as="geometry" />
        </mxCell>
        <mxCell id="XdePbFOdz1kA0PpPe4pF-73" value="&lt;font style=&quot;font-size: 25px;&quot;&gt;Real Numbers&lt;/font&gt;" style="whiteSpace=wrap;html=1;" vertex="1" parent="1">
          <mxGeometry x="1280" y="120" width="120" height="60" as="geometry" />
        </mxCell>
        <mxCell id="XdePbFOdz1kA0PpPe4pF-76" style="edgeStyle=orthogonalEdgeStyle;rounded=0;orthogonalLoop=1;jettySize=auto;html=1;entryX=0;entryY=0.5;entryDx=0;entryDy=0;" edge="1" parent="1" source="XdePbFOdz1kA0PpPe4pF-74" target="XdePbFOdz1kA0PpPe4pF-75">
          <mxGeometry relative="1" as="geometry" />
        </mxCell>
        <mxCell id="XdePbFOdz1kA0PpPe4pF-74" value="&lt;font style=&quot;font-size: 27px;&quot;&gt;Real Numbers (R)&lt;/font&gt;" style="triangle;whiteSpace=wrap;html=1;" vertex="1" parent="1">
          <mxGeometry x="920" y="320" width="120" height="160" as="geometry" />
        </mxCell>
        <mxCell id="XdePbFOdz1kA0PpPe4pF-75" value="&lt;font style=&quot;font-size: 27px;&quot;&gt;Real Numbers (R)&lt;/font&gt;" style="triangle;whiteSpace=wrap;html=1;" vertex="1" parent="1">
          <mxGeometry x="1120" y="320" width="120" height="160" as="geometry" />
        </mxCell>
        <mxCell id="XdePbFOdz1kA0PpPe4pF-77" value="&lt;font style=&quot;font-size: 25px;&quot;&gt;2-D plane&lt;/font&gt;" style="whiteSpace=wrap;html=1;" vertex="1" parent="1">
          <mxGeometry x="1280" y="360" width="120" height="60" as="geometry" />
        </mxCell>
        <mxCell id="XdePbFOdz1kA0PpPe4pF-78" style="edgeStyle=orthogonalEdgeStyle;rounded=0;orthogonalLoop=1;jettySize=auto;html=1;entryX=0;entryY=0.5;entryDx=0;entryDy=0;" edge="1" parent="1" source="XdePbFOdz1kA0PpPe4pF-79" target="XdePbFOdz1kA0PpPe4pF-80">
          <mxGeometry relative="1" as="geometry" />
        </mxCell>
        <mxCell id="XdePbFOdz1kA0PpPe4pF-79" value="&lt;font style=&quot;font-size: 27px;&quot;&gt;Real Numbers (R)&lt;/font&gt;" style="triangle;whiteSpace=wrap;html=1;" vertex="1" parent="1">
          <mxGeometry x="920" y="560" width="120" height="160" as="geometry" />
        </mxCell>
        <mxCell id="XdePbFOdz1kA0PpPe4pF-83" style="edgeStyle=orthogonalEdgeStyle;rounded=0;orthogonalLoop=1;jettySize=auto;html=1;entryX=0;entryY=0.5;entryDx=0;entryDy=0;" edge="1" parent="1" source="XdePbFOdz1kA0PpPe4pF-80" target="XdePbFOdz1kA0PpPe4pF-82">
          <mxGeometry relative="1" as="geometry" />
        </mxCell>
        <mxCell id="XdePbFOdz1kA0PpPe4pF-80" value="&lt;font style=&quot;font-size: 27px;&quot;&gt;Real Numbers (R)&lt;/font&gt;" style="triangle;whiteSpace=wrap;html=1;" vertex="1" parent="1">
          <mxGeometry x="1120" y="560" width="120" height="160" as="geometry" />
        </mxCell>
        <mxCell id="XdePbFOdz1kA0PpPe4pF-81" value="&lt;font style=&quot;font-size: 25px;&quot;&gt;3-D plane&lt;/font&gt;" style="whiteSpace=wrap;html=1;" vertex="1" parent="1">
          <mxGeometry x="1480" y="600" width="120" height="60" as="geometry" />
        </mxCell>
        <mxCell id="XdePbFOdz1kA0PpPe4pF-82" value="&lt;font style=&quot;font-size: 27px;&quot;&gt;Real Numbers (R)&lt;/font&gt;" style="triangle;whiteSpace=wrap;html=1;" vertex="1" parent="1">
          <mxGeometry x="1320" y="560" width="120" height="160" as="geometry" />
        </mxCell>
        <mxCell id="XdePbFOdz1kA0PpPe4pF-86" style="edgeStyle=orthogonalEdgeStyle;rounded=0;orthogonalLoop=1;jettySize=auto;html=1;" edge="1" parent="1" source="XdePbFOdz1kA0PpPe4pF-84" target="XdePbFOdz1kA0PpPe4pF-85">
          <mxGeometry relative="1" as="geometry" />
        </mxCell>
        <mxCell id="XdePbFOdz1kA0PpPe4pF-84" value="&lt;font style=&quot;font-size: 20px;&quot;&gt;denominator&lt;/font&gt;" style="triangle;whiteSpace=wrap;html=1;" vertex="1" parent="1">
          <mxGeometry x="920" y="760" width="120" height="160" as="geometry" />
        </mxCell>
        <mxCell id="XdePbFOdz1kA0PpPe4pF-96" style="edgeStyle=orthogonalEdgeStyle;rounded=0;orthogonalLoop=1;jettySize=auto;html=1;entryX=0;entryY=0.25;entryDx=0;entryDy=0;" edge="1" parent="1" source="XdePbFOdz1kA0PpPe4pF-85" target="XdePbFOdz1kA0PpPe4pF-93">
          <mxGeometry relative="1" as="geometry" />
        </mxCell>
        <mxCell id="XdePbFOdz1kA0PpPe4pF-85" value="&lt;font style=&quot;font-size: 27px;&quot;&gt;Integer&lt;/font&gt;" style="triangle;whiteSpace=wrap;html=1;" vertex="1" parent="1">
          <mxGeometry x="1120" y="760" width="120" height="160" as="geometry" />
        </mxCell>
        <mxCell id="XdePbFOdz1kA0PpPe4pF-87" value="&lt;font style=&quot;font-size: 25px;&quot;&gt;Rational Numbers&lt;/font&gt;" style="whiteSpace=wrap;html=1;" vertex="1" parent="1">
          <mxGeometry x="1480" y="880" width="120" height="60" as="geometry" />
        </mxCell>
        <mxCell id="XdePbFOdz1kA0PpPe4pF-92" value="&lt;font style=&quot;font-size: 19px;&quot;&gt;numerator&amp;nbsp; (mixed number)&lt;/font&gt;" style="triangle;whiteSpace=wrap;html=1;" vertex="1" parent="1">
          <mxGeometry x="920" y="960" width="90" height="120" as="geometry" />
        </mxCell>
        <mxCell id="XdePbFOdz1kA0PpPe4pF-93" value="&lt;font style=&quot;font-size: 22px;&quot;&gt;numerator if&amp;nbsp; converted to an integer&lt;/font&gt;" style="triangle;whiteSpace=wrap;html=1;" vertex="1" parent="1">
          <mxGeometry x="1320" y="840" width="120" height="160" as="geometry" />
        </mxCell>
        <mxCell id="XdePbFOdz1kA0PpPe4pF-95" style="edgeStyle=orthogonalEdgeStyle;rounded=0;orthogonalLoop=1;jettySize=auto;html=1;entryX=-0.028;entryY=0.688;entryDx=0;entryDy=0;entryPerimeter=0;" edge="1" parent="1" source="XdePbFOdz1kA0PpPe4pF-92" target="XdePbFOdz1kA0PpPe4pF-93">
          <mxGeometry relative="1" as="geometry" />
        </mxCell>
      </root>
    </mxGraphModel>
  </diagram>
</mxfile>
